{
  "accessors": [
    {
      "bufferView": 2,
      "componentType": 5126,
      "count": 46454,
      "max": [
        299.130859375,
        187.44775390625,
        248.07492065429688
      ],
      "min": [
        -508.38818359375,
        -340.5625305175781,
        -747.88037109375
      ],
      "type": "VEC3"
    },
    {
      "bufferView": 2,
      "byteOffset": 557448,
      "componentType": 5126,
      "count": 46454,
      "max": [
        0.9975365400314331,
        0.9999955892562866,
        0.997636079788208
      ],
      "min": [
        -0.9843229651451111,
        -0.4763580858707428,
        -0.9963817000389099
      ],
      "type": "VEC3"
    },
    {
      "bufferView": 1,
      "componentType": 5126,
      "count": 46454,
      "max": [
        0.9111167192459106,
        0.97588050365448
      ],
      "min": [
        0.05001020431518555,
        0.06750121712684631
      ],
      "type": "VEC2"
    },
    {
      "bufferView": 0,
      "componentType": 5125,
      "count": 122406,
      "type": "SCALAR"
    },
    {
      "bufferView": 2,
      "byteOffset": 1114896,
      "componentType": 5126,
      "count": 65533,
      "max": [
        263.6088562011719,
        562.2559814453125,
        285.19677734375
      ],
      "min": [
        -278.638427734375,
        0.0,
        -209.43722534179688
      ],
      "type": "VEC3"
    },
    {
      "bufferView": 2,
      "byteOffset": 1901292,
      "componentType": 5126,
      "count": 65533,
      "max": [
        0.9999645352363586,
        0.999890923500061,
        0.9999310374259949
      ],
      "min": [
        -0.9999911785125732,
        -0.9999957084655762,
        -0.9999771118164063
      ],
      "type": "VEC3"
    },
    {
      "bufferView": 1,
      "byteOffset": 371632,
      "componentType": 5126,
      "count": 65533,
      "max": [
        6.535134315490723,
        5.210912704467773
      ],
      "min": [
        -5.535158634185791,
        -4.210913181304932
      ],
      "type": "VEC2"
    },
    {
      "bufferView": 0,
      "byteOffset": 489624,
      "componentType": 5125,
      "count": 88002,
      "type": "SCALAR"
    },
    {
      "bufferView": 2,
      "byteOffset": 2687688,
      "componentType": 5126,
      "count": 63768,
      "max": [
        75.44326782226563,
        467.05059814453125,
        125.02642822265625
      ],
      "min": [
        -112.249755859375,
        0.0,
        -71.68646240234375
      ],
      "type": "VEC3"
    },
    {
      "bufferView": 2,
      "byteOffset": 3452904,
      "componentType": 5126,
      "count": 63768,
      "max": [
        0.9999385476112366,
        0.9992029070854187,
        0.9999902248382568
      ],
      "min": [
        -0.9999957084655762,
        -0.9998231530189514,
        -0.999961793422699
      ],
      "type": "VEC3"
    },
    {
      "bufferView": 1,
      "byteOffset": 895896,
      "componentType": 5126,
      "count": 63768,
      "max": [
        2.096527099609375,
        2.9623587131500244
      ],
      "min": [
        -1.063047170639038,
        -2.8830220699310303
      ],
      "type": "VEC2"
    },
    {
      "bufferView": 0,
      "byteOffset": 841632,
      "componentType": 5125,
      "count": 69120,
      "type": "SCALAR"
    }
  ],
  "asset": {
    "extras": {
      "author": "Fallout: Tokugawa (https://sketchfab.com/Fallout-Tokugawa)",
      "license": "CC-BY-4.0 (http://creativecommons.org/licenses/by/4.0/)",
      "source": "https://sketchfab.com/3d-models/japanese-red-maple-7593d53e3e954240ad69220da9a6e9ff",
      "title": "Japanese Red Maple"
    },
    "generator": "Sketchfab-13.42.0",
    "version": "2.0"
  },
  "bufferViews": [
    {
      "buffer": 0,
      "byteLength": 1118112,
      "name": "floatBufferViews",
      "target": 34963
    },
    {
      "buffer": 0,
      "byteLength": 1406040,
      "byteOffset": 1118112,
      "byteStride": 8,
      "name": "floatBufferViews",
      "target": 34962
    },
    {
      "buffer": 0,
      "byteLength": 4218120,
      "byteOffset": 2524152,
      "byteStride": 12,
      "name": "floatBufferViews",
      "target": 34962
    }
  ],
  "buffers": [
    {
      "byteLength": 6742272,
      "uri": "scene.bin"
    }
  ],
  "images": [
    {
      "uri": "textures/leaves_baseColor.jpeg"
    },
    {
      "uri": "textures/trunk_baseColor.jpeg"
    }
  ],
  "materials": [
    {
      "doubleSided": true,
      "name": "leaves",
      "pbrMetallicRoughness": {
        "baseColorTexture": {
          "index": 0
        },
        "roughnessFactor": 0.858579
      }
    },
    {
      "doubleSided": true,
      "name": "trunk",
      "pbrMetallicRoughness": {
        "baseColorTexture": {
          "index": 1
        },
        "metallicFactor": 0.0,
        "roughnessFactor": 0.5
      }
    }
  ],
  "meshes": [
    {
      "name": "Object_0",
      "primitives": [
        {
          "attributes": {
            "NORMAL": 1,
            "POSITION": 0,
            "TEXCOORD_0": 2
          },
          "indices": 3,
          "material": 0,
          "mode": 4
        }
      ]
    },
    {
      "name": "Object_1",
      "primitives": [
        {
          "attributes": {
            "NORMAL": 5,
            "POSITION": 4,
            "TEXCOORD_0": 6
          },
          "indices": 7,
          "material": 1,
          "mode": 4
        }
      ]
    },
    {
      "name": "Object_2",
      "primitives": [
        {
          "attributes": {
            "NORMAL": 9,
            "POSITION": 8,
            "TEXCOORD_0": 10
          },
          "indices": 11,
          "material": 1,
          "mode": 4
        }
      ]
    }
  ],
  "nodes": [
    {
      "children": [
        1
      ],
      "matrix": [
        1.0,
        0.0,
        0.0,
        0.0,
        0.0,
        2.220446049250313e-16,
        -1.0,
        0.0,
        0.0,
        1.0,
        2.220446049250313e-16,
        0.0,
        0.0,
        0.0,
        0.0,
        1.0
      ],
      "name": "Sketchfab_model"
    },
    {
      "children": [
        2
      ],
      "name": "root"
    },
    {
      "children": [
        3,
        5
      ],
      "matrix": [
        1.0,
        0.0,
        0.0,
        0.0,
        0.0,
        2.220446049250313e-16,
        1.0,
        0.0,
        0.0,
        -1.0,
        2.220446049250313e-16,
        0.0,
        0.0,
        0.0,
        0.0,
        1.0
      ],
      "name": "GLTF_SceneRootNode"
    },
    {
      "children": [
        4
      ],
      "matrix": [
        -0.12664804479775385,
        0.054219136059165056,
        -0.20179156341519372,
        0.0,
        -0.00912368647949602,
        0.234305356154415,
        0.06868141960021953,
        0.0,
        0.2087494037904684,
        0.043135326218408064,
        -0.11942493191344591,
        0.0,
        36.52478790283203,
        142.07064819335938,
        -63.779457092285156,
        1.0
      ],
      "name": "leaves_0"
    },
    {
      "mesh": 0,
      "name": "Object_4"
    },
    {
      "children": [
        6,
        7
      ],
      "matrix": [
        0.2955406904220581,
        0.0,
        0.0,
        0.0,
        0.0,
        0.2955406904220581,
        0.0,
        0.0,
        0.0,
        0.0,
        0.2955406904220581,
        0.0,
        -0.8663330078125,
        -3.7735824584960938,
        -13.7816162109375,
        1.0
      ],
      "name": "trunk_1"
    },
    {
      "mesh": 1,
      "name": "Object_6"
    },
    {
      "mesh": 2,
      "name": "Object_7"
    }
  ],
  "samplers": [
    {
      "magFilter": 9729,
      "minFilter": 9987,
      "wrapS": 10497,
      "wrapT": 10497
    }
  ],
  "scene": 0,
  "scenes": [
    {
      "name": "Sketchfab_Scene",
      "nodes": [
        0
      ]
    }
  ],
  "textures": [
    {
      "sampler": 0,
      "source": 0
    },
    {
      "sampler": 0,
      "source": 1
    }
  ]
}
